<svg id="flat" height="512" viewBox="0 0 512 512" width="512" xmlns="http://www.w3.org/2000/svg"><g fill="#cf8300"><path d="m440 368 16.472 104h16l-.472-128h-32z"/><path d="m344.472 368-.472 104h16.472l16-104z"/><path d="m72 368-16.472 104h-16l.472-128h32z"/><path d="m167.528 368 .472 104h-16.472l-16-104z"/></g><path d="m56 304a32 32 0 0 0 32 32h48a32 32 0 0 1 32 32h-88a56 56 0 0 1 -56-56v-128a32 32 0 0 1 32 32z" fill="#f6bb00"/><path d="m456 304a32 32 0 0 1 -32 32h-48a32 32 0 0 0 -32 32h88a56 56 0 0 0 56-56v-128a32 32 0 0 0 -32 32z" fill="#f6bb00"/><path d="m344 144v-32h-24l-7.4314-17.94116 16.97046-16.97052-22.62744-22.62744-16.97046 16.97058-17.94116-7.43146v-24h-32v24l-17.94116 7.43146-16.97046-16.97058-22.62744 22.62744 16.97046 16.97052-7.4314 17.94116h-24v32h24l7.4314 17.9411-16.97046 16.97058 22.62744 22.62738 16.97046-16.97052 17.94116 7.43146v24h32v-24l17.94116-7.43146 16.97046 16.97052 22.62744-22.62738-16.97046-16.97058 7.4314-17.9411zm-88 8a24 24 0 1 1 24-24 24 24 0 0 1 -24 24z" fill="#ef5e3b"/><path d="m357.272 288h-37.272a40 40 0 0 0 -40 40v112h8z" fill="#42566b"/><path d="m432 304a32 32 0 0 1 -32 32h-50.728l-45.272 104h-24l29.7995-121.5262a40 40 0 0 1 38.84908-30.4738h11.35142v-16h72z" fill="#4d6378"/><path d="m456 220.05005v33.23a34.72687 34.72687 0 0 1 -34.72 34.71995h-69.28v-73.41992c.40991-13.71 6.39014-29.12012 17.18994-40.92017l12.48999-13.65991h39.59007l14.1001 12.99a63.995 63.995 0 0 1 20.6299 47.06005z" fill="#548aff"/><path d="m392 288v-34l-40 10v24z" fill="#f5c99d"/><path d="m346.17871 273.70117-3.87988-15.52246 59.6416-14.90918a7.99 7.99 0 0 0 6.05957-7.76172v-19.50781h16v19.50781a23.96689 23.96689 0 0 1 -18.17773 23.28319z" fill="#517ef7"/><path d="m352 288h-48v-24l48-16z" fill="#deae7e"/><path d="m376 104v40a24 24 0 0 0 24 24 24 24 0 0 0 24-24v-40z" fill="#f5c99d"/><path d="m376 104a54.62737 54.62737 0 0 0 38.62737 16h9.37263v-16a16 16 0 0 0 -16-16h-16a16 16 0 0 0 -16 16z" fill="#b1712c"/><path d="m154.728 288h37.272a40 40 0 0 1 40 40v112h-8z" fill="#42566b"/><path d="m80 304a32 32 0 0 0 32 32h50.728l45.272 104h24l-29.7995-121.5262a40 40 0 0 0 -38.84908-30.4738h-11.35142v-16h-72z" fill="#4d6378"/><path d="m56 220.05005v33.23a34.72687 34.72687 0 0 0 34.72 34.71995h69.28v-73.41992c-.40991-13.71-6.39014-29.12012-17.18994-40.92017l-12.48999-13.65991h-39.59007l-14.1001 12.99a63.995 63.995 0 0 0 -20.6299 47.06005z" fill="#548aff"/><path d="m120 288v-34l40 10v24z" fill="#f5c99d"/><path d="m165.82129 273.70117 3.87988-15.52246-59.6416-14.90918a7.99 7.99 0 0 1 -6.05957-7.76172v-19.50781h-16v19.50781a23.96689 23.96689 0 0 0 18.17773 23.28319z" fill="#517ef7"/><path d="m160 288h48v-24l-48-16z" fill="#deae7e"/><path d="m136 104v40a24 24 0 0 1 -24 24 24 24 0 0 1 -24-24v-40z" fill="#f5c99d"/><path d="m136 104a54.62737 54.62737 0 0 1 -38.62737 16h-9.37263v-16a16 16 0 0 1 16-16h16a16 16 0 0 1 16 16z" fill="#b1712c"/></svg>